<svg width="25" height="25" viewBox="0 0 25 25" fill="none" xmlns="http://www.w3.org/2000/svg">
<rect width="25" height="25" fill="#F5F5F5"/>
<g id="04 Board">
<rect width="1920" height="5866" transform="translate(-487 -3719)" fill="#F0F0F0"/>
<g id="task overlay v1">
<rect x="-463.818" y="-1811.1" width="564" height="3729" rx="4.5" stroke="#9747FF" stroke-dasharray="10 5"/>
<g id="Property 1=User story edit" filter="url(#filter0_d_45_2487)">
<rect x="-444.318" y="-840.603" width="525" height="930" rx="30" fill="white"/>
<g id="Primary check button">
<rect x="-48.3179" y="-15.6033" width="89" height="57" rx="10" fill="#2A3647"/>
<g id="check">
<mask id="mask0_45_2487" style="mask-type:alpha" maskUnits="userSpaceOnUse" x="0" y="0" width="25" height="25">
<rect id="Bounding box" x="0.682129" y="0.896729" width="24" height="24" fill="#D9D9D9"/>
</mask>
<g mask="url(#mask0_45_2487)">
<path id="check_2" d="M10.2328 16.0467L18.7078 7.57173C18.9078 7.37173 19.1453 7.27173 19.4203 7.27173C19.6953 7.27173 19.9328 7.37173 20.1328 7.57173C20.3328 7.77173 20.4328 8.00923 20.4328 8.28423C20.4328 8.55923 20.3328 8.79673 20.1328 8.99673L10.9328 18.1967C10.7328 18.3967 10.4995 18.4967 10.2328 18.4967C9.96616 18.4967 9.73282 18.3967 9.53282 18.1967L5.23282 13.8967C5.03282 13.6967 4.93699 13.4592 4.94532 13.1842C4.95366 12.9092 5.05782 12.6717 5.25782 12.4717C5.45782 12.2717 5.69532 12.1717 5.97032 12.1717C6.24532 12.1717 6.48282 12.2717 6.68282 12.4717L10.2328 16.0467Z" fill="white"/>
</g>
</g>
</g>
</g>
</g>
</g>
<defs>
<filter id="filter0_d_45_2487" x="-448.318" y="-844.603" width="533" height="938" filterUnits="userSpaceOnUse" color-interpolation-filters="sRGB">
<feFlood flood-opacity="0" result="BackgroundImageFix"/>
<feColorMatrix in="SourceAlpha" type="matrix" values="0 0 0 0 0 0 0 0 0 0 0 0 0 0 0 0 0 0 127 0" result="hardAlpha"/>
<feOffset/>
<feGaussianBlur stdDeviation="2"/>
<feColorMatrix type="matrix" values="0 0 0 0 0 0 0 0 0 0 0 0 0 0 0 0 0 0 0.16 0"/>
<feBlend mode="normal" in2="BackgroundImageFix" result="effect1_dropShadow_45_2487"/>
<feBlend mode="normal" in="SourceGraphic" in2="effect1_dropShadow_45_2487" result="shape"/>
</filter>
</defs>
</svg>
